<svg width="730" height="940" viewBox="0 0 730 940" fill="none" preserveAspectRatio="none" xmlns="http://www.w3.org/2000/svg">
<path d="M95 0C95 13.8071 106.193 25 120 25C133.807 25 145 13.8071 145 0H165C165 13.8071 176.193 25 190 25C203.807 25 215 13.8071 215 0H235C235 13.8071 246.193 25 260 25C273.807 25 285 13.8071 285 0H305C305 13.8071 316.193 25 330 25C343.807 25 355 13.8071 355 0H375C375 13.8071 386.193 25 400 25C413.807 25 425 13.8071 425 0H445C445 13.8071 456.193 25 470 25C483.807 25 495 13.8071 495 0H515C515 13.8071 526.193 25 540 25C553.807 25 565 13.8071 565 0H585C585 13.8071 596.193 25 610 25C623.807 25 635 13.8071 635 0H655C655 13.8071 666.193 25 680 25C693.807 25 705 13.8071 705 0H730V25C716.193 25 705 36.1929 705 50C705 63.8071 716.193 75 730 75V95C716.193 95 705 106.193 705 120C705 133.807 716.193 145 730 145V165C716.193 165 705 176.193 705 190C705 203.807 716.193 215 730 215V235C716.193 235 705 246.193 705 260C705 273.807 716.193 285 730 285V305C716.193 305 705 316.193 705 330C705 343.807 716.193 355 730 355V375C716.193 375 705 386.193 705 400C705 413.807 716.193 425 730 425V445C716.193 445 705 456.193 705 470C705 483.807 716.193 495 730 495V515C716.193 515 705 526.193 705 540C705 553.807 716.193 565 730 565V585C716.193 585 705 596.193 705 610C705 623.807 716.193 635 730 635V655C716.193 655 705 666.193 705 680C705 693.807 716.193 705 730 705V725C716.193 725 705 736.193 705 750C705 763.807 716.193 775 730 775V795C716.193 795 705 806.193 705 820C705 833.807 716.193 845 730 845V865C716.193 865 705 876.193 705 890C705 903.807 716.193 915 730 915V940H705C705 926.193 693.807 915 680 915C666.193 915 655 926.193 655 940H635C635 926.193 623.807 915 610 915C596.193 915 585 926.193 585 940H565C565 926.193 553.807 915 540 915C526.193 915 515 926.193 515 940H495C495 926.193 483.807 915 470 915C456.193 915 445 926.193 445 940H425C425 926.193 413.807 915 400 915C386.193 915 375 926.193 375 940H355C355 926.193 343.807 915 330 915C316.193 915 305 926.193 305 940H285C285 926.193 273.807 915 260 915C246.193 915 235 926.193 235 940H215C215 926.193 203.807 915 190 915C176.193 915 165 926.193 165 940H145C145 926.193 133.807 915 120 915C106.193 915 95 926.193 95 940H75C75 926.193 63.8071 915 50 915C36.1929 915 25 926.193 25 940H0V914.68C1.30253 914.889 2.63839 915 4 915C17.8071 915 29 903.807 29 890C29 876.193 17.8071 865 4 865C2.63845 865 1.30248 865.11 0 865.319V844.68C1.30253 844.889 2.63839 845 4 845C17.8071 845 29 833.807 29 820C29 806.193 17.8071 795 4 795C2.63845 795 1.30248 795.11 0 795.319V774.68C1.30253 774.889 2.63839 775 4 775C17.8071 775 29 763.807 29 750C29 736.193 17.8071 725 4 725C2.63845 725 1.30248 725.11 0 725.319V704.68C1.30253 704.889 2.63839 705 4 705C17.8071 705 29 693.807 29 680C29 666.193 17.8071 655 4 655C2.63845 655 1.30248 655.11 0 655.319V634.68C1.30253 634.889 2.63839 635 4 635C17.8071 635 29 623.807 29 610C29 596.193 17.8071 585 4 585C2.63845 585 1.30248 585.11 0 585.319V564.68C1.30253 564.889 2.63839 565 4 565C17.8071 565 29 553.807 29 540C29 526.193 17.8071 515 4 515C2.63845 515 1.30248 515.11 0 515.319V494.68C1.30253 494.889 2.63839 495 4 495C17.8071 495 29 483.807 29 470C29 456.193 17.8071 445 4 445C2.63845 445 1.30248 445.11 0 445.319V424.68C1.30253 424.889 2.63839 425 4 425C17.8071 425 29 413.807 29 400C29 386.193 17.8071 375 4 375C2.63845 375 1.30248 375.11 0 375.319V354.68C1.30253 354.889 2.63839 355 4 355C17.8071 355 29 343.807 29 330C29 316.193 17.8071 305 4 305C2.63845 305 1.30248 305.11 0 305.319V284.68C1.30253 284.889 2.63839 285 4 285C17.8071 285 29 273.807 29 260C29 246.193 17.8071 235 4 235C2.63845 235 1.30248 235.11 0 235.319V214.68C1.30253 214.889 2.63839 215 4 215C17.8071 215 29 203.807 29 190C29 176.193 17.8071 165 4 165C2.63845 165 1.30248 165.11 0 165.319V144.68C1.30253 144.889 2.63839 145 4 145C17.8071 145 29 133.807 29 120C29 106.193 17.8071 95 4 95C2.63845 95 1.30248 95.1099 0 95.3193V74.6797C1.30253 74.8892 2.63839 75 4 75C17.8071 75 29 63.8071 29 50C29 36.1929 17.8071 25 4 25C2.63845 25 1.30248 25.1099 0 25.3193V0H25C25 13.8071 36.1929 25 50 25C63.8071 25 75 13.8071 75 0H95Z" fill="#FEFFEF"/>
</svg>
